With: Massimo Dapporto, Elena Sofia Ricci and Emilio Solfrizzi

Italië, de jaren tachtig. Het land gaat gebukt onder de tirannie van de Siciliaanse maffia. Nadat onderzoeksrechter Gaetano Costa bij een aanslag om het leven komt, lijkt de strijd tegen de georganiseerde misdaad verloren. Een man weigert echter op te geven: Giovanni Falcone. Deze rechter uit Palermo zet zijn onderzoek voort, met gevaar voor eigen leven. Het jarenlange onderzoek, waarbij Falcone geholpen wordt door een informant, leidt uiteindelijk tot een monsterproces waarbij meer dan driehonderd maffialeden worden veroordeeld, waaronder de baas der bazen. Maar de Cosa Nostra geeft zich niet snel gewonnen...

In recent years, the story of Italian magistrate Giovanni Falcone has been told and retold many times. Some of those productions are loosely based on the truth, others come very close to a documentary.

General:

Complete name                    : Giovanni Falcone\Giovanni Falcone DVD01.avi
Format                           : AVI
Format/Info                      : Audio Video Interleave
File size                        : 1.47 GiB
Duration                         : 1h 35mn
Overall bit rate                 : 2 207 Kbps

Video:

Format                           : MPEG-4 Visual
Format profile                   : Simple@L3
Format settings, BVOP            : No
Format settings, QPel            : No
Format settings, GMC             : No warppoints
Format settings, Matrix          : Default (H.263)
Codec ID                         : XVID
Codec ID/Hint                    : XviD
Duration                         : 1h 35mn
Bit rate                         : 1 748 Kbps
Width                            : 704 pixels
Height                           : 396 pixels
Display aspect ratio             : 16:9
Frame rate                       : 25.000 fps
Color space                      : YUV
Chroma subsampling               : 4:2:0
Bit depth                        : 8 bits
Scan type                        : Progressive
Bits/(Pixel*Frame)               : 0.251
Stream size                      : 1.16 GiB (79%)
Writing library                  : XviD 1.1.2 (UTC 2006-11-01)

Audio:

Format                           : AC-3
Format/Info                      : Audio Coding 3
Mode extension                   : CM (complete main)
Codec ID                         : 2000
Duration                         : 1h 35mn
Bit rate mode                    : Constant
Bit rate                         : 448 Kbps
Channel(s)                       : 6 channels
Channel positions                : Front: L C R, Side: L R, LFE
Sampling rate                    : 48.0 KHz
Bit depth                        : 16 bits
Stream size                      : 305 MiB (20%)
Alignment                        : Aligned on interleaves
Interleave, duration             : 32 ms (0.80 video frame)
Interleave, preload duration     : 64 ms


